M48
; DRILL file {KiCad (5.1.2-1)-1} date Tuesday, 01 June 2021 at 15:31:24
; FORMAT={-:-/ absolute / metric / decimal}
; #@! TF.CreationDate,2021-06-01T15:31:24+01:00
; #@! TF.GenerationSoftware,Kicad,Pcbnew,(5.1.2-1)-1
; #@! TF.FileFunction,Plated,1,2,PTH
FMAT,2
METRIC
T1C0.400
T2C0.500
T3C0.700
T4C0.800
T5C0.810
T6C2.540
%
G90
G05
T1
X113.391Y-104.099
X115.864Y-104.695
X127.124Y-95.146
X128.238Y-90.86
X130.182Y-83.825
X131.605Y-83.129
X131.606Y-84.631
X135.048Y-91.846
X135.286Y-93.393
X135.791Y-91.086
X137.334Y-88.704
X139.991Y-87.532
X147.56Y-130.584
X154.862Y-90.071
X155.995Y-60.554
X156.253Y-111.592
X157.385Y-105.777
X162.499Y-128.833
X164.971Y-128.189
X167.154Y-112.146
X168.491Y-130.584
X174.493Y-101.137
X178.269Y-130.907
X180.79Y-100.135
X182.984Y-129.158
X184.255Y-127.952
X184.794Y-118.73
X188.621Y-115.167
X190.314Y-119.094
T2
X136.2Y-133.85
X136.21Y-132.99
X136.23Y-132.13
X179.31Y-125.95
X189.44Y-133.02
X189.44Y-133.9
X189.48Y-132.13
T3
X109.71Y-65.11
X114.79Y-65.11
X109.73Y-62.67
X114.81Y-62.67
T4
X108.04Y-67.93
X110.54Y-67.93
X137.0Y-69.83
X137.0Y-77.45
X139.54Y-69.83
X139.54Y-77.45
X142.08Y-69.83
X142.08Y-77.45
X144.62Y-69.83
X144.62Y-77.45
X147.16Y-69.83
X147.16Y-77.45
X149.7Y-69.83
X149.7Y-77.45
X152.24Y-69.83
X152.24Y-77.45
X130.29Y-113.23
X132.79Y-113.23
X165.0Y-116.38
X165.0Y-124.0
X167.54Y-116.38
X167.54Y-124.0
X170.08Y-116.38
X170.08Y-124.0
X172.62Y-116.38
X172.62Y-124.0
X175.16Y-116.38
X175.16Y-124.0
X177.7Y-116.38
X177.7Y-124.0
X180.24Y-116.38
X180.24Y-124.0
X185.16Y-92.97
X185.16Y-100.59
X187.7Y-92.97
X187.7Y-100.59
X190.24Y-92.97
X190.24Y-100.59
X192.78Y-92.97
X192.78Y-100.59
X195.32Y-92.97
X195.32Y-100.59
X197.86Y-92.97
X197.86Y-100.59
X200.4Y-92.97
X200.4Y-100.59
X202.94Y-92.97
X202.94Y-100.59
X126.3Y-81.66
X128.8Y-81.66
X113.8Y-69.83
X113.8Y-77.45
X116.34Y-69.83
X116.34Y-77.45
X118.88Y-69.83
X118.88Y-77.45
X121.42Y-69.83
X121.42Y-77.45
X123.96Y-69.83
X123.96Y-77.45
X126.5Y-69.83
X126.5Y-77.45
X129.04Y-69.83
X129.04Y-77.45
X113.8Y-101.38
X113.8Y-109.0
X116.34Y-101.38
X116.34Y-109.0
X118.88Y-101.38
X118.88Y-109.0
X121.42Y-101.38
X121.42Y-109.0
X123.96Y-101.38
X123.96Y-109.0
X126.5Y-101.38
X126.5Y-109.0
X129.04Y-101.38
X129.04Y-109.0
X127.18Y-97.21
X129.68Y-97.21
X179.14Y-72.62
X179.14Y-75.12
X113.8Y-85.63
X113.8Y-93.25
X116.34Y-85.63
X116.34Y-93.25
X118.88Y-85.63
X118.88Y-93.25
X121.42Y-85.63
X121.42Y-93.25
X123.96Y-85.63
X123.96Y-93.25
X126.5Y-85.63
X126.5Y-93.25
X129.04Y-85.63
X129.04Y-93.25
X136.27Y-65.81
X138.81Y-65.81
X141.35Y-65.81
X143.89Y-65.81
X146.43Y-65.81
X148.97Y-65.81
X160.25Y-69.83
X160.25Y-77.45
X162.79Y-69.83
X162.79Y-77.45
X165.33Y-69.83
X165.33Y-77.45
X167.87Y-69.83
X167.87Y-77.45
X170.41Y-69.83
X170.41Y-77.45
X172.95Y-69.83
X172.95Y-77.45
X175.49Y-69.83
X175.49Y-77.45
X119.86Y-65.14
X122.36Y-65.14
X135.0Y-116.38
X135.0Y-124.0
X137.54Y-116.38
X137.54Y-124.0
X140.08Y-116.38
X140.08Y-124.0
X142.62Y-116.38
X142.62Y-124.0
X145.16Y-116.38
X145.16Y-124.0
X147.7Y-116.38
X147.7Y-124.0
X150.24Y-116.38
X150.24Y-124.0
X152.78Y-116.38
X152.78Y-124.0
X155.32Y-116.38
X155.32Y-124.0
X157.86Y-116.38
X157.86Y-124.0
X178.09Y-99.62
X178.09Y-102.12
X185.0Y-69.83
X185.0Y-77.45
X187.54Y-69.83
X187.54Y-77.45
X190.08Y-69.83
X190.08Y-77.45
X192.62Y-69.83
X192.62Y-77.45
X195.16Y-69.83
X195.16Y-77.45
X197.7Y-69.83
X197.7Y-77.45
X200.24Y-69.83
X200.24Y-77.45
X202.78Y-69.83
X202.78Y-77.45
X105.6Y-52.6
X105.6Y-57.5
X187.0Y-116.38
X187.0Y-124.0
X189.54Y-116.38
X189.54Y-124.0
X192.08Y-116.38
X192.08Y-124.0
X194.62Y-116.38
X194.62Y-124.0
X197.16Y-116.38
X197.16Y-124.0
X199.7Y-116.38
X199.7Y-124.0
X202.24Y-116.38
X202.24Y-124.0
X190.49Y-129.97
X192.99Y-129.97
X126.01Y-65.12
X128.51Y-65.12
X190.47Y-126.91
X192.97Y-126.91
X141.0Y-88.76
X141.0Y-104.0
X143.54Y-88.76
X143.54Y-104.0
X146.08Y-88.76
X146.08Y-104.0
X148.62Y-88.76
X148.62Y-104.0
X151.16Y-88.76
X151.16Y-104.0
X153.7Y-88.76
X153.7Y-104.0
X156.24Y-88.76
X156.24Y-104.0
X158.78Y-88.76
X158.78Y-104.0
X161.32Y-88.76
X161.32Y-104.0
X163.86Y-88.76
X163.86Y-104.0
X166.4Y-88.76
X166.4Y-104.0
X168.94Y-88.76
X168.94Y-104.0
X171.48Y-88.76
X171.48Y-104.0
X174.02Y-88.76
X174.02Y-104.0
T5
X137.0Y-59.46
X137.0Y-62.0
X139.54Y-59.46
X139.54Y-62.0
X142.08Y-59.46
X142.08Y-62.0
X144.62Y-59.46
X144.62Y-62.0
X147.16Y-59.46
X147.16Y-62.0
X149.7Y-59.46
X149.7Y-62.0
X152.24Y-59.46
X152.24Y-62.0
X154.78Y-59.46
X154.78Y-62.0
X157.32Y-59.46
X157.32Y-62.0
X159.86Y-59.46
X159.86Y-62.0
X162.4Y-59.46
X162.4Y-62.0
X164.94Y-59.46
X164.94Y-62.0
X167.48Y-59.46
X167.48Y-62.0
X170.02Y-59.46
X170.02Y-62.0
X172.56Y-59.46
X172.56Y-62.0
X175.1Y-59.46
X175.1Y-62.0
X177.64Y-59.46
X177.64Y-62.0
T6
X131.16Y-60.22
X183.48Y-60.22
T0
M30
